<mxfile host="Electron" agent="Mozilla/5.0 (Windows NT 10.0; Win64; x64) AppleWebKit/537.36 (KHTML, like Gecko) draw.io/28.1.2 Chrome/138.0.7204.243 Electron/37.4.0 Safari/537.36" version="28.1.2">
  <diagram name="Página-1" id="DDZbjeQsy2ici1cd8d8U">
    <mxGraphModel dx="727" dy="441" grid="1" gridSize="10" guides="1" tooltips="1" connect="1" arrows="1" fold="1" page="1" pageScale="1" pageWidth="827" pageHeight="1169" math="0" shadow="0">
      <root>
        <mxCell id="0" />
        <mxCell id="1" parent="0" />
        <mxCell id="qY7wvZFKGfnGrIV6edGT-1" value="Medico&lt;div&gt;&lt;br&gt;&lt;/div&gt;" style="swimlane;fontStyle=1;align=center;verticalAlign=top;childLayout=stackLayout;horizontal=1;startSize=26;horizontalStack=0;resizeParent=1;resizeParentMax=0;resizeLast=0;collapsible=1;marginBottom=0;whiteSpace=wrap;html=1;" vertex="1" parent="1">
          <mxGeometry x="148" y="171" width="160" height="88" as="geometry" />
        </mxCell>
        <mxCell id="qY7wvZFKGfnGrIV6edGT-2" value="&lt;div&gt;&lt;div&gt;- crm: text&lt;/div&gt;&lt;/div&gt;&lt;div&gt;- especialidade:&amp;nbsp; obj&lt;/div&gt;&lt;div&gt;&lt;br&gt;&lt;/div&gt;" style="text;strokeColor=none;fillColor=none;align=left;verticalAlign=top;spacingLeft=4;spacingRight=4;overflow=hidden;rotatable=0;points=[[0,0.5],[1,0.5]];portConstraint=eastwest;whiteSpace=wrap;html=1;" vertex="1" parent="qY7wvZFKGfnGrIV6edGT-1">
          <mxGeometry y="26" width="160" height="54" as="geometry" />
        </mxCell>
        <mxCell id="qY7wvZFKGfnGrIV6edGT-3" value="" style="line;strokeWidth=1;fillColor=none;align=left;verticalAlign=middle;spacingTop=-1;spacingLeft=3;spacingRight=3;rotatable=0;labelPosition=right;points=[];portConstraint=eastwest;strokeColor=inherit;" vertex="1" parent="qY7wvZFKGfnGrIV6edGT-1">
          <mxGeometry y="80" width="160" height="8" as="geometry" />
        </mxCell>
        <mxCell id="qY7wvZFKGfnGrIV6edGT-7" value="Paciente&lt;div&gt;&lt;br&gt;&lt;/div&gt;" style="swimlane;fontStyle=1;align=center;verticalAlign=top;childLayout=stackLayout;horizontal=1;startSize=26;horizontalStack=0;resizeParent=1;resizeParentMax=0;resizeLast=0;collapsible=1;marginBottom=0;whiteSpace=wrap;html=1;" vertex="1" parent="1">
          <mxGeometry x="508" y="171" width="160" height="88" as="geometry" />
        </mxCell>
        <mxCell id="qY7wvZFKGfnGrIV6edGT-8" value="&lt;div&gt;&lt;span style=&quot;background-color: transparent; color: light-dark(rgb(0, 0, 0), rgb(255, 255, 255));&quot;&gt;- numeroCarteira: text&lt;/span&gt;&lt;/div&gt;&lt;div&gt;&lt;br&gt;&lt;/div&gt;" style="text;strokeColor=none;fillColor=none;align=left;verticalAlign=top;spacingLeft=4;spacingRight=4;overflow=hidden;rotatable=0;points=[[0,0.5],[1,0.5]];portConstraint=eastwest;whiteSpace=wrap;html=1;" vertex="1" parent="qY7wvZFKGfnGrIV6edGT-7">
          <mxGeometry y="26" width="160" height="54" as="geometry" />
        </mxCell>
        <mxCell id="qY7wvZFKGfnGrIV6edGT-9" value="" style="line;strokeWidth=1;fillColor=none;align=left;verticalAlign=middle;spacingTop=-1;spacingLeft=3;spacingRight=3;rotatable=0;labelPosition=right;points=[];portConstraint=eastwest;strokeColor=inherit;" vertex="1" parent="qY7wvZFKGfnGrIV6edGT-7">
          <mxGeometry y="80" width="160" height="8" as="geometry" />
        </mxCell>
        <mxCell id="qY7wvZFKGfnGrIV6edGT-10" value="Consulta" style="swimlane;fontStyle=1;align=center;verticalAlign=top;childLayout=stackLayout;horizontal=1;startSize=26;horizontalStack=0;resizeParent=1;resizeParentMax=0;resizeLast=0;collapsible=1;marginBottom=0;whiteSpace=wrap;html=1;" vertex="1" parent="1">
          <mxGeometry x="328" y="331" width="160" height="230" as="geometry" />
        </mxCell>
        <mxCell id="qY7wvZFKGfnGrIV6edGT-11" value="- id: int&lt;div&gt;- dataHora: DateTime&lt;/div&gt;&lt;div&gt;- tipoAtendimento: text&lt;/div&gt;&lt;div&gt;- local: text&lt;/div&gt;&lt;div&gt;- medico: Medico&lt;/div&gt;&lt;div&gt;- paciente: Paciente&lt;/div&gt;&lt;div&gt;- observaçoes: text&lt;/div&gt;&lt;div&gt;- status: text&lt;/div&gt;" style="text;strokeColor=none;fillColor=none;align=left;verticalAlign=top;spacingLeft=4;spacingRight=4;overflow=hidden;rotatable=0;points=[[0,0.5],[1,0.5]];portConstraint=eastwest;whiteSpace=wrap;html=1;" vertex="1" parent="qY7wvZFKGfnGrIV6edGT-10">
          <mxGeometry y="26" width="160" height="134" as="geometry" />
        </mxCell>
        <mxCell id="qY7wvZFKGfnGrIV6edGT-12" value="" style="line;strokeWidth=1;fillColor=none;align=left;verticalAlign=middle;spacingTop=-1;spacingLeft=3;spacingRight=3;rotatable=0;labelPosition=right;points=[];portConstraint=eastwest;strokeColor=inherit;" vertex="1" parent="qY7wvZFKGfnGrIV6edGT-10">
          <mxGeometry y="160" width="160" height="8" as="geometry" />
        </mxCell>
        <mxCell id="qY7wvZFKGfnGrIV6edGT-13" value="+ agendar()&lt;div&gt;+ buscar_consulta()&lt;/div&gt;&lt;div&gt;+ cancelar()&lt;/div&gt;" style="text;strokeColor=none;fillColor=none;align=left;verticalAlign=top;spacingLeft=4;spacingRight=4;overflow=hidden;rotatable=0;points=[[0,0.5],[1,0.5]];portConstraint=eastwest;whiteSpace=wrap;html=1;" vertex="1" parent="qY7wvZFKGfnGrIV6edGT-10">
          <mxGeometry y="168" width="160" height="62" as="geometry" />
        </mxCell>
        <mxCell id="qY7wvZFKGfnGrIV6edGT-14" style="edgeStyle=orthogonalEdgeStyle;rounded=0;orthogonalLoop=1;jettySize=auto;html=1;entryX=0;entryY=0.25;entryDx=0;entryDy=0;" edge="1" parent="1" source="qY7wvZFKGfnGrIV6edGT-17" target="qY7wvZFKGfnGrIV6edGT-1">
          <mxGeometry relative="1" as="geometry" />
        </mxCell>
        <mxCell id="qY7wvZFKGfnGrIV6edGT-15" value="1" style="edgeLabel;html=1;align=center;verticalAlign=middle;resizable=0;points=[];" connectable="0" vertex="1" parent="qY7wvZFKGfnGrIV6edGT-14">
          <mxGeometry x="-0.8512" y="1" relative="1" as="geometry">
            <mxPoint x="13" as="offset" />
          </mxGeometry>
        </mxCell>
        <mxCell id="qY7wvZFKGfnGrIV6edGT-16" value="0..*" style="edgeLabel;html=1;align=center;verticalAlign=middle;resizable=0;points=[];" connectable="0" vertex="1" parent="qY7wvZFKGfnGrIV6edGT-14">
          <mxGeometry x="0.8214" y="-2" relative="1" as="geometry">
            <mxPoint x="-3" y="-15" as="offset" />
          </mxGeometry>
        </mxCell>
        <mxCell id="qY7wvZFKGfnGrIV6edGT-17" value="Especialidade&lt;div&gt;&lt;br&gt;&lt;/div&gt;" style="swimlane;fontStyle=1;align=center;verticalAlign=top;childLayout=stackLayout;horizontal=1;startSize=26;horizontalStack=0;resizeParent=1;resizeParentMax=0;resizeLast=0;collapsible=1;marginBottom=0;whiteSpace=wrap;html=1;" vertex="1" parent="1">
          <mxGeometry x="38" y="331" width="160" height="88" as="geometry" />
        </mxCell>
        <mxCell id="qY7wvZFKGfnGrIV6edGT-18" value="- idEspecialidade: int&lt;div&gt;&lt;div&gt;- especialidade: text&lt;/div&gt;&lt;/div&gt;" style="text;strokeColor=none;fillColor=none;align=left;verticalAlign=top;spacingLeft=4;spacingRight=4;overflow=hidden;rotatable=0;points=[[0,0.5],[1,0.5]];portConstraint=eastwest;whiteSpace=wrap;html=1;" vertex="1" parent="qY7wvZFKGfnGrIV6edGT-17">
          <mxGeometry y="26" width="160" height="54" as="geometry" />
        </mxCell>
        <mxCell id="qY7wvZFKGfnGrIV6edGT-19" value="" style="line;strokeWidth=1;fillColor=none;align=left;verticalAlign=middle;spacingTop=-1;spacingLeft=3;spacingRight=3;rotatable=0;labelPosition=right;points=[];portConstraint=eastwest;strokeColor=inherit;" vertex="1" parent="qY7wvZFKGfnGrIV6edGT-17">
          <mxGeometry y="80" width="160" height="8" as="geometry" />
        </mxCell>
        <mxCell id="qY7wvZFKGfnGrIV6edGT-23" value="&amp;lt;&amp;lt;Pessoa&amp;gt;&amp;gt;" style="swimlane;fontStyle=1;align=center;verticalAlign=top;childLayout=stackLayout;horizontal=1;startSize=26;horizontalStack=0;resizeParent=1;resizeParentMax=0;resizeLast=0;collapsible=1;marginBottom=0;whiteSpace=wrap;html=1;" vertex="1" parent="1">
          <mxGeometry x="328" y="10" width="160" height="118" as="geometry">
            <mxRectangle x="328" y="30" width="80" height="30" as="alternateBounds" />
          </mxGeometry>
        </mxCell>
        <mxCell id="qY7wvZFKGfnGrIV6edGT-24" value="- id: int&lt;div&gt;- nome: text&lt;/div&gt;&lt;div&gt;- dataNascimento: Date&lt;/div&gt;&lt;div&gt;- sexo&lt;/div&gt;" style="text;strokeColor=none;fillColor=none;align=left;verticalAlign=top;spacingLeft=4;spacingRight=4;overflow=hidden;rotatable=0;points=[[0,0.5],[1,0.5]];portConstraint=eastwest;whiteSpace=wrap;html=1;" vertex="1" parent="qY7wvZFKGfnGrIV6edGT-23">
          <mxGeometry y="26" width="160" height="84" as="geometry" />
        </mxCell>
        <mxCell id="qY7wvZFKGfnGrIV6edGT-25" value="" style="line;strokeWidth=1;fillColor=none;align=left;verticalAlign=middle;spacingTop=-1;spacingLeft=3;spacingRight=3;rotatable=0;labelPosition=right;points=[];portConstraint=eastwest;strokeColor=inherit;" vertex="1" parent="qY7wvZFKGfnGrIV6edGT-23">
          <mxGeometry y="110" width="160" height="8" as="geometry" />
        </mxCell>
        <mxCell id="qY7wvZFKGfnGrIV6edGT-35" value="Extends" style="endArrow=block;endSize=16;endFill=0;html=1;rounded=1;entryX=0.277;entryY=0.75;entryDx=0;entryDy=0;entryPerimeter=0;exitX=1;exitY=0.5;exitDx=0;exitDy=0;curved=0;" edge="1" parent="1" source="qY7wvZFKGfnGrIV6edGT-2" target="qY7wvZFKGfnGrIV6edGT-25">
          <mxGeometry width="160" relative="1" as="geometry">
            <mxPoint x="360" y="220" as="sourcePoint" />
            <mxPoint x="468" y="214.70999999999998" as="targetPoint" />
            <Array as="points">
              <mxPoint x="372" y="224" />
            </Array>
          </mxGeometry>
        </mxCell>
        <mxCell id="qY7wvZFKGfnGrIV6edGT-36" value="Extends" style="endArrow=block;endSize=16;endFill=0;html=1;rounded=1;curved=0;entryX=0.75;entryY=1;entryDx=0;entryDy=0;exitX=0;exitY=0.5;exitDx=0;exitDy=0;" edge="1" parent="1" source="qY7wvZFKGfnGrIV6edGT-8" target="qY7wvZFKGfnGrIV6edGT-23">
          <mxGeometry width="160" relative="1" as="geometry">
            <mxPoint x="470" y="230" as="sourcePoint" />
            <mxPoint x="440" y="130" as="targetPoint" />
            <Array as="points">
              <mxPoint x="448" y="224" />
            </Array>
          </mxGeometry>
        </mxCell>
        <mxCell id="qY7wvZFKGfnGrIV6edGT-37" value="- : método ou atributo privado, implica que não podem ser acessados por outra classe ou subclasse." style="shape=note;whiteSpace=wrap;html=1;backgroundOutline=1;fontColor=#000000;darkOpacity=0.05;fillColor=#FFF9B2;strokeColor=none;fillStyle=solid;direction=west;gradientDirection=north;gradientColor=#FFF2A1;shadow=1;size=20;pointerEvents=1;align=left;" vertex="1" parent="1">
          <mxGeometry x="680" y="10" width="140" height="90" as="geometry" />
        </mxCell>
        <mxCell id="qY7wvZFKGfnGrIV6edGT-38" value="1" style="endArrow=open;html=1;endSize=12;startArrow=diamondThin;startSize=14;startFill=1;edgeStyle=orthogonalEdgeStyle;align=left;verticalAlign=bottom;rounded=1;exitX=0.5;exitY=1;exitDx=0;exitDy=0;entryX=-0.021;entryY=0.399;entryDx=0;entryDy=0;entryPerimeter=0;curved=0;" edge="1" parent="1" source="qY7wvZFKGfnGrIV6edGT-1" target="qY7wvZFKGfnGrIV6edGT-11">
          <mxGeometry x="-0.8307" y="12" relative="1" as="geometry">
            <mxPoint x="230" y="374.57" as="sourcePoint" />
            <mxPoint x="280" y="420" as="targetPoint" />
            <mxPoint as="offset" />
          </mxGeometry>
        </mxCell>
        <mxCell id="qY7wvZFKGfnGrIV6edGT-40" value="0..*" style="edgeLabel;html=1;align=center;verticalAlign=middle;resizable=0;points=[];" vertex="1" connectable="0" parent="qY7wvZFKGfnGrIV6edGT-38">
          <mxGeometry x="0.8323" y="3" relative="1" as="geometry">
            <mxPoint y="-10" as="offset" />
          </mxGeometry>
        </mxCell>
        <mxCell id="qY7wvZFKGfnGrIV6edGT-39" value="1" style="endArrow=open;html=1;endSize=12;startArrow=diamondThin;startSize=14;startFill=1;edgeStyle=orthogonalEdgeStyle;align=left;verticalAlign=bottom;rounded=1;curved=0;" edge="1" parent="1" target="qY7wvZFKGfnGrIV6edGT-11">
          <mxGeometry x="-0.8438" y="10" relative="1" as="geometry">
            <mxPoint x="580" y="260" as="sourcePoint" />
            <mxPoint x="620" y="440" as="targetPoint" />
            <Array as="points">
              <mxPoint x="581" y="260" />
              <mxPoint x="581" y="410" />
            </Array>
            <mxPoint as="offset" />
          </mxGeometry>
        </mxCell>
        <mxCell id="qY7wvZFKGfnGrIV6edGT-41" value="0..*" style="edgeLabel;html=1;align=center;verticalAlign=middle;resizable=0;points=[];" vertex="1" connectable="0" parent="qY7wvZFKGfnGrIV6edGT-39">
          <mxGeometry x="0.8051" y="-2" relative="1" as="geometry">
            <mxPoint x="-2" y="-13" as="offset" />
          </mxGeometry>
        </mxCell>
      </root>
    </mxGraphModel>
  </diagram>
</mxfile>
